<svg width="58" height="60" viewBox="0 0 58 60" fill="none" xmlns="http://www.w3.org/2000/svg">
<g id="line-md:switch-off-filled">
<g id="Mask group">
<mask id="mask0_193_159" style="mask-type:luminance" maskUnits="userSpaceOnUse" x="6" y="19" width="46" height="22">
<g id="Group">
<g id="Group_2">
<path id="Vector" d="M41.0833 20H16.9167C11.5779 20 7.25 24.4772 7.25 30C7.25 35.5228 11.5779 40 16.9167 40H41.0833C46.4221 40 50.75 35.5228 50.75 30C50.75 24.4772 46.4221 20 41.0833 20Z" fill="white" stroke="white" stroke-width="2" stroke-linecap="round" stroke-linejoin="round"/>
</g>
<path id="Vector_2" d="M16.9166 37.5C20.9207 37.5 24.1666 34.1421 24.1666 30C24.1666 25.8579 20.9207 22.5 16.9166 22.5C12.9126 22.5 9.66663 25.8579 9.66663 30C9.66663 34.1421 12.9126 37.5 16.9166 37.5Z" fill="black"/>
</g>
</mask>
<g mask="url(#mask0_193_159)">
<path id="Vector_3" d="M53.1667 17.5H4.83337V42.5H53.1667V17.5Z" fill="white" fill-opacity="0.5"/>
</g>
</g>
</g>
</svg>
